<svg xmlns="http://www.w3.org/2000/svg" width="600" height="600" viewBox="0 0 600 600" role="img" aria-labelledby="emblem-title emblem-description"><title id="emblem-title">Stitches &amp; Stories — Стежки и истории</title><desc id="emblem-description">Полное название мастерской, небольшая игла с пудровой нитью, две лаконичные веточки и сердце.</desc>
    <g id="botanical-sprigs" stroke-linecap="round" stroke-linejoin="round">
      <g id="left-branch"><path d="M252 456 C220 452 185 437 153 399 C134 376 123 349 125 321" fill="none" stroke="#73846a" stroke-width="1.5"/><path d="M237 453 Q233.11 433.79 217 425 Q220.09 443.09 237 453Z" fill="none" stroke="#73846a" stroke-width="1.5"/><path d="M211 444 Q192.88 440.41 180 452 Q196.88 455.91 211 444Z" fill="none" stroke="#73846a" stroke-width="1.5"/><path d="M182 428 Q186.18 409.65 175 396 Q170.54 413.07 182 428Z" fill="none" stroke="#73846a" stroke-width="1.5"/><path d="M153 399 Q141.52 382.78 123 381 Q133.28 396.5 153 399Z" fill="none" stroke="#73846a" stroke-width="1.5"/><path d="M130 357 Q142.79 343.93 140 327 Q127.61 338.87 130 357Z" fill="none" stroke="#73846a" stroke-width="1.5"/></g>
      <g id="right-branch" transform="translate(600 0) scale(-1 1)"><path d="M252 456 C220 452 185 437 153 399 C134 376 123 349 125 321" fill="none" stroke="#73846a" stroke-width="1.5"/><path d="M237 453 Q233.11 433.79 217 425 Q220.09 443.09 237 453Z" fill="none" stroke="#73846a" stroke-width="1.5"/><path d="M211 444 Q192.88 440.41 180 452 Q196.88 455.91 211 444Z" fill="none" stroke="#73846a" stroke-width="1.5"/><path d="M182 428 Q186.18 409.65 175 396 Q170.54 413.07 182 428Z" fill="none" stroke="#73846a" stroke-width="1.5"/><path d="M153 399 Q141.52 382.78 123 381 Q133.28 396.5 153 399Z" fill="none" stroke="#73846a" stroke-width="1.5"/><path d="M130 357 Q142.79 343.93 140 327 Q127.61 338.87 130 357Z" fill="none" stroke="#73846a" stroke-width="1.5"/></g>
    </g>
    <path id="thread" d="M321 138 C294 145 288 119 306 111 C326 102 342 117 333 136 C324 157 349 169 382 154" fill="none" stroke="#8d4e60" stroke-width="1.7" stroke-linecap="round"/>
    <g id="needle" transform="translate(331 124) rotate(49)" stroke="#756860" stroke-linejoin="round">
      <path d="M0 0 C-4 0 -4 6 -3 13 L0 91 L3 13 C4 6 4 0 0 0Z" fill="#faf7f2" stroke-width="1.5"/>
      <ellipse cx="0" cy="9" rx="1.2" ry="5" fill="#faf7f2" stroke-width="1"/>
    </g>
    <path id="thread-through-eye" d="M314 139 Q321 138 325 131" fill="none" stroke="#8d4e60" stroke-width="1.7" stroke-linecap="round"/>
    <g id="brand-name" aria-label="Stitches &amp; Stories">
      <path fill="#382f2d" d="M183.97 283.18Q180.83 283.18 177.75 282.44Q174.66 281.71 171.23 279.84Q170.84 279.55 170.69 279.11Q170.54 278.67 170.64 277.98L172.01 265.05Q172.01 264.56 172.55 264.56Q173.09 264.56 173.09 265.05Q173.19 269.26 174.51 273.08Q175.83 276.9 178.77 279.26Q181.71 281.61 186.42 281.61Q189.36 281.61 192.05 280.48Q194.75 279.35 196.81 276.86Q198.86 274.36 199.55 270.14Q200.43 265.63 199.01 262.45Q197.59 259.26 194.85 256.86Q192.1 254.46 188.97 252.4Q185.93 250.25 183.23 247.94Q180.54 245.64 179.12 242.51Q177.7 239.37 178.48 234.86Q179.56 229.77 182.6 226.38Q185.63 223 189.85 221.34Q194.06 219.67 198.37 219.67Q200.82 219.67 203.47 220.21Q206.12 220.75 208.96 222.02Q210.23 222.71 210.13 223.69L208.86 234.57Q208.86 234.96 208.32 234.96Q207.78 234.96 207.68 234.57Q207.49 231.33 206.51 228.25Q205.53 225.16 203.27 223.15Q201.02 221.14 196.81 221.14Q192.98 221.14 190.48 222.81Q187.99 224.47 186.56 226.97Q185.14 229.47 184.65 232.22Q183.87 236.23 185.29 239.12Q186.71 242.02 189.36 244.17Q192 246.33 195.04 248.48Q198.28 250.54 201.12 252.94Q203.96 255.34 205.53 258.63Q207.1 261.91 206.31 266.52Q205.53 271.12 202.69 274.89Q199.84 278.67 195.14 280.92Q190.44 283.18 183.97 283.18ZM223.17 283.18Q221.31 283.18 219.59 282.44Q217.88 281.71 217.04 279.89Q216.21 278.08 216.8 274.85L221.01 252.01Q221.7 248.39 221.16 247.5Q220.62 246.62 217.68 246.62Q217.29 246.62 217.39 246.03Q217.48 245.45 217.78 245.45Q221.21 245.45 223.66 243.24Q226.11 241.04 226.89 237.9Q226.99 237.61 227.82 237.61Q228.66 237.61 228.56 237.9L222.48 271.81Q221.7 275.83 222.82 277.69Q223.95 279.55 226.99 279.55Q229.83 279.55 232.09 278.23Q234.34 276.9 236.4 275.14Q236.59 274.94 237.03 275.34Q237.48 275.73 237.18 275.92Q232.77 279.84 229.44 281.51Q226.11 283.18 223.17 283.18ZM237.28 248.48Q237.08 248.48 235.12 248.24Q233.16 247.99 230.57 247.75Q227.97 247.5 225.52 247.5L225.72 245.15Q228.26 245.15 231.2 244.96Q234.14 244.76 236.59 244.61Q239.04 244.47 239.73 244.47Q240.22 244.47 240.37 244.71Q240.51 244.96 240.42 245.35Q240.32 246.13 239.29 247.31Q238.26 248.48 237.28 248.48ZM250.9 282.88Q248.55 282.88 247.77 280.82Q246.98 278.77 248.06 273.28L252.08 252.89Q253.16 247.11 250.41 247.11Q249.33 247.11 247.52 248.29Q245.71 249.46 243.65 251.62Q243.36 252.01 242.91 251.57Q242.47 251.13 242.87 250.84Q246.2 247.01 248.94 245.15Q251.69 243.29 254.23 243.29Q256.68 243.29 257.37 245.4Q258.06 247.5 256.98 252.7L253.06 273.28Q252.47 276.22 252.96 277.59Q253.45 278.96 254.63 278.96Q255.7 278.96 257.47 277.84Q259.23 276.71 261.29 274.65Q261.68 274.26 262.07 274.65Q262.47 275.04 262.07 275.43Q258.84 279.06 256.14 280.97Q253.45 282.88 250.9 282.88ZM257.08 231.73Q255.12 231.73 253.99 230.65Q252.86 229.57 252.86 227.51Q252.86 225.65 253.99 224.57Q255.12 223.49 257.08 223.49Q259.13 223.49 260.16 224.57Q261.19 225.65 261.19 227.51Q261.19 231.73 257.08 231.73ZM276.28 283.18Q274.42 283.18 272.71 282.44Q270.99 281.71 270.16 279.89Q269.33 278.08 269.91 274.85L274.13 252.01Q274.81 248.39 274.27 247.5Q273.74 246.62 270.8 246.62Q270.4 246.62 270.5 246.03Q270.6 245.45 270.89 245.45Q274.32 245.45 276.77 243.24Q279.22 241.04 280.01 237.9Q280.11 237.61 280.94 237.61Q281.77 237.61 281.67 237.9L275.6 271.81Q274.81 275.83 275.94 277.69Q277.07 279.55 280.11 279.55Q282.95 279.55 285.2 278.23Q287.46 276.9 289.51 275.14Q289.71 274.94 290.15 275.34Q290.59 275.73 290.3 275.92Q285.89 279.84 282.56 281.51Q279.22 283.18 276.28 283.18ZM290.4 248.48Q290.2 248.48 288.24 248.24Q286.28 247.99 283.68 247.75Q281.09 247.5 278.64 247.5L278.83 245.15Q281.38 245.15 284.32 244.96Q287.26 244.76 289.71 244.61Q292.16 244.47 292.85 244.47Q293.34 244.47 293.48 244.71Q293.63 244.96 293.53 245.35Q293.43 246.13 292.4 247.31Q291.38 248.48 290.4 248.48ZM308.72 283.27Q304.51 283.27 301.81 281.36Q299.12 279.45 297.75 276.37Q296.37 273.28 296.18 269.55Q295.98 265.83 296.77 262.2Q298.04 256.03 301.42 251.77Q304.8 247.5 309.16 245.2Q313.52 242.9 317.74 242.9Q320.09 242.9 322.1 243.63Q324.11 244.37 325.24 245.64Q326.36 246.92 326.17 248.68Q326.07 249.95 325.28 250.88Q324.5 251.82 322.93 251.82Q321.56 251.82 320.73 250.93Q319.89 250.05 319.4 248.68Q319.11 247.5 317.93 246.28Q316.76 245.05 314.31 245.05Q311.07 245.05 308.72 246.97Q306.37 248.88 304.95 252.06Q303.53 255.25 302.74 259.17Q301.76 264.56 302.4 269.31Q303.04 274.06 305.59 276.95Q308.13 279.84 312.84 279.84Q316.07 279.84 318.62 278.47Q321.17 277.1 323.23 275.43Q323.52 275.24 323.91 275.63Q324.3 276.02 324.01 276.32Q319.99 279.94 316.17 281.61Q312.35 283.27 308.72 283.27ZM333.22 282.78Q331.85 282.78 331.41 282.64Q330.97 282.49 330.97 282.2Q330.97 281.8 331.51 279.55Q332.05 277.3 332.44 274.75L342.43 221.34Q343.12 217.81 341.65 216.93Q340.18 216.05 335.77 218.2Q335.38 218.4 335.13 217.81Q334.89 217.22 335.28 217.12L347.92 210.95Q348.31 210.75 348.71 211.15Q349.1 211.54 349 211.73L336.36 281.31Q336.16 282.78 333.22 282.78ZM358.21 282.88Q355.66 282.88 355.03 280.73Q354.39 278.57 355.37 273.28L358.21 257.7Q359.29 252.11 358.41 249.42Q357.53 246.72 354.59 246.72Q351.45 246.72 348.02 250.74Q344.59 254.76 341.5 262.5Q338.42 270.24 336.36 281.31L335.18 281.22Q337.24 269.75 340.67 261.13Q344.1 252.5 348.56 247.7Q353.02 242.9 357.82 242.9Q362.03 242.9 363.36 245.94Q364.68 248.97 363.5 255.83L360.27 273.28Q359.78 276.22 360.22 277.59Q360.66 278.96 361.94 278.96Q363.01 278.96 364.68 277.74Q366.35 276.51 368.4 274.45Q368.8 274.06 369.19 274.45Q369.58 274.85 369.19 275.24Q366.05 278.86 363.41 280.87Q360.76 282.88 358.21 282.88ZM385.95 283.18Q380.75 283.18 377.76 280.43Q374.77 277.69 373.84 273.28Q372.91 268.87 373.89 263.87Q374.48 260.24 376.49 256.47Q378.5 252.7 381.54 249.66Q384.57 246.62 388.3 244.76Q392.02 242.9 396.24 242.9Q399.86 242.9 401.58 244.32Q403.29 245.74 402.9 248.19Q402.41 250.54 400.16 252.7Q397.9 254.85 394.37 256.57Q390.85 258.28 386.49 259.56Q382.12 260.83 377.42 261.32L377.62 260.05Q385.16 258.97 390.31 256.57Q395.45 254.17 396.33 250.25Q397.02 247.6 395.45 246.57Q393.88 245.54 391.92 245.54Q388.59 245.54 386.14 247.6Q383.69 249.66 382.12 253.09Q380.56 256.52 379.87 260.64Q378.79 266.12 379.62 270.44Q380.46 274.75 383.01 277.3Q385.55 279.84 389.67 279.84Q392.02 279.84 394.57 279.16Q397.12 278.47 399.57 276.61Q399.86 276.41 400.21 276.81Q400.55 277.2 400.25 277.49Q396.53 280.53 393 281.85Q389.47 283.18 385.95 283.18ZM414.27 283.08Q410.54 283.08 407.8 281.31Q405.06 279.55 405.45 277Q405.64 275.63 406.53 274.94Q407.41 274.26 408.39 274.26Q409.66 274.26 410.3 275.29Q410.94 276.32 411.62 277.59Q412.31 278.86 413.58 279.89Q414.86 280.92 417.21 280.92Q419.85 280.92 421.47 279.45Q423.09 277.98 423.48 274.94Q423.87 271.91 422.6 269.7Q421.32 267.5 419.12 265.73Q416.91 263.97 414.81 262.15Q412.7 260.34 411.48 258.09Q410.25 255.83 410.84 252.8Q411.43 249.76 413.44 247.6Q415.44 245.45 418.24 244.32Q421.03 243.19 423.87 243.19Q427.4 243.19 429.75 244.61Q432.1 246.03 431.81 248.09Q431.52 249.46 430.59 250.1Q429.65 250.74 428.77 250.74Q427.4 250.74 426.62 249.95Q425.83 249.17 425.1 248.09Q424.36 247.01 423.33 246.18Q422.3 245.35 420.34 245.35Q418.48 245.35 417.01 246.33Q415.54 247.31 415.25 249.27Q414.76 252.21 416.08 254.36Q417.4 256.52 419.56 258.38Q421.72 260.24 423.87 262.15Q426.03 264.07 427.25 266.42Q428.48 268.77 427.99 271.91Q427.5 274.75 425.59 277.35Q423.68 279.94 420.74 281.51Q417.8 283.08 414.27 283.08Z"/>
      <path fill="#382f2d" d="M173.22 369.1Q167.7 369.1 163.38 366.9Q159.06 364.69 156.16 360.87Q153.26 357.05 152.2 352.27Q151.14 347.48 152.16 342.42Q153.26 337.36 156.39 333.5Q159.52 329.64 163.75 327.43Q167.98 325.22 172.3 325.22Q174.6 325.22 176.67 325.91Q178.74 326.6 180.4 328.35L175.34 332.95Q173.87 329.73 171.66 328.72Q169.45 327.7 167.61 327.7Q165.13 327.7 163.06 329.31Q160.99 330.92 159.47 333.59Q157.95 336.26 157.22 339.48Q156.2 345.18 157.45 349.97Q158.69 354.75 161.49 358.25Q164.3 361.74 168.16 363.63Q172.03 365.52 176.26 365.52Q182.06 365.52 186.66 362.57Q191.26 359.63 194.06 353.88Q196.87 348.13 197.24 339.57L198.8 340.12Q198.06 349.78 194.61 356.27Q191.16 362.76 185.64 365.93Q180.12 369.1 173.22 369.1ZM155.65 350.06 154.73 349.14Q157.95 346.47 161.95 343.34Q165.96 340.22 170.1 336.86Q174.24 333.5 177.69 330.1Q181.14 326.69 183.25 323.38Q185.37 320.07 185.37 317.03Q185.37 315.19 184.86 314.23Q184.36 313.26 183.62 312.71Q182.88 312.16 182.33 311.51Q181.78 310.87 181.78 309.67Q181.78 308.29 182.61 307.51Q183.44 306.73 184.72 306.73Q186.75 306.73 188.04 308.52Q189.32 310.32 189.32 313.35Q189.32 317.31 187.07 321.31Q184.82 325.31 181.09 329.13Q177.36 332.95 172.9 336.63Q168.44 340.31 163.93 343.67Q159.42 347.02 155.65 350.06ZM181.04 346.93Q180.03 346.93 179.3 346.29Q178.56 345.64 178.56 343.99Q178.56 341.5 180.08 339.34Q181.6 337.18 184.03 335.85Q186.47 334.51 189.05 334.51Q191.53 334.51 194.11 335.57Q196.68 336.63 199.31 338.05Q201.93 339.48 204.32 340.54Q206.71 341.6 208.74 341.6Q210.02 341.6 210.76 341.09Q211.5 340.58 211.5 339.85Q211.5 339.02 210.99 338.33Q210.48 337.64 209.98 336.9Q209.47 336.17 209.47 335.16Q209.47 334.05 210.07 333.55Q210.67 333.04 211.86 333.04Q212.78 333.04 213.47 333.59Q214.16 334.14 214.16 335.89Q214.16 338.19 212.92 340.35Q211.68 342.52 209.61 343.9Q207.54 345.28 205.06 345.28Q202.76 345.28 200.13 344.17Q197.51 343.07 194.8 341.6Q192.08 340.12 189.51 338.97Q186.93 337.82 184.63 337.82Q183.25 337.82 182.52 338.42Q181.78 339.02 181.78 339.76Q181.78 340.68 182.15 341.46Q182.52 342.24 182.88 343.02Q183.25 343.8 183.25 344.72Q183.25 345.37 182.79 346.15Q182.33 346.93 181.04 346.93ZM252.34 369.1Q249.4 369.1 246.5 368.41Q243.6 367.72 240.38 365.98Q240.02 365.7 239.88 365.29Q239.74 364.87 239.83 364.23L241.12 352.08Q241.12 351.62 241.63 351.62Q242.13 351.62 242.13 352.08Q242.22 356.04 243.47 359.63Q244.71 363.22 247.47 365.42Q250.23 367.63 254.64 367.63Q257.4 367.63 259.93 366.57Q262.46 365.52 264.4 363.17Q266.33 360.82 266.97 356.87Q267.8 352.64 266.47 349.65Q265.13 346.66 262.56 344.4Q259.98 342.15 257.04 340.22Q254.18 338.19 251.65 336.03Q249.12 333.87 247.79 330.92Q246.46 327.98 247.19 323.75Q248.2 318.96 251.06 315.79Q253.91 312.62 257.86 311.05Q261.82 309.49 265.87 309.49Q268.17 309.49 270.65 309.99Q273.14 310.5 275.8 311.7Q277 312.34 276.91 313.26L275.71 323.47Q275.71 323.84 275.21 323.84Q274.7 323.84 274.61 323.47Q274.42 320.44 273.5 317.54Q272.58 314.64 270.47 312.75Q268.35 310.87 264.4 310.87Q260.81 310.87 258.46 312.43Q256.12 314 254.78 316.34Q253.45 318.69 252.99 321.26Q252.25 325.04 253.59 327.75Q254.92 330.46 257.4 332.49Q259.89 334.51 262.74 336.54Q265.78 338.47 268.44 340.72Q271.11 342.98 272.58 346.06Q274.06 349.14 273.32 353.46Q272.58 357.79 269.92 361.33Q267.25 364.87 262.83 366.99Q258.42 369.1 252.34 369.1ZM289.14 369.1Q287.4 369.1 285.79 368.41Q284.18 367.72 283.39 366.02Q282.61 364.32 283.16 361.28L287.12 339.85Q287.76 336.44 287.26 335.62Q286.75 334.79 283.99 334.79Q283.62 334.79 283.72 334.24Q283.81 333.68 284.08 333.68Q287.3 333.68 289.6 331.61Q291.9 329.54 292.64 326.6Q292.73 326.32 293.51 326.32Q294.3 326.32 294.2 326.6L288.5 358.43Q287.76 362.2 288.82 363.95Q289.88 365.7 292.73 365.7Q295.4 365.7 297.52 364.46Q299.63 363.22 301.56 361.56Q301.75 361.38 302.16 361.74Q302.58 362.11 302.3 362.3Q298.16 365.98 295.03 367.54Q291.9 369.1 289.14 369.1ZM302.39 336.54Q302.21 336.54 300.37 336.31Q298.53 336.08 296.09 335.85Q293.65 335.62 291.35 335.62L291.54 333.41Q293.93 333.41 296.69 333.22Q299.45 333.04 301.75 332.9Q304.05 332.76 304.69 332.76Q305.15 332.76 305.29 332.99Q305.43 333.22 305.34 333.59Q305.24 334.33 304.28 335.43Q303.31 336.54 302.39 336.54ZM319.32 369.29Q314.9 369.29 312.05 366.71Q309.2 364.14 308.19 359.81Q307.18 355.49 308.19 350.24Q309.2 344.82 312.05 340.54Q314.9 336.26 318.95 333.78Q323 331.29 327.51 331.29Q332.29 331.29 335.19 333.91Q338.09 336.54 339.05 340.81Q340.02 345.09 338.92 350.24Q337.81 356.04 334.73 360.36Q331.65 364.69 327.55 366.99Q323.46 369.29 319.32 369.29ZM322.54 366.99Q326.31 366.99 329.49 363.63Q332.66 360.27 333.76 354.29Q334.41 350.89 334.22 347.25Q334.04 343.62 332.94 340.49Q331.83 337.36 329.81 335.43Q327.78 333.5 324.84 333.5Q320.98 333.5 317.76 336.9Q314.54 340.31 313.34 346.29Q312.6 349.88 312.88 353.46Q313.16 357.05 314.31 360.13Q315.46 363.22 317.53 365.1Q319.6 366.99 322.54 366.99ZM351.98 367.36 351.06 367.26Q351.8 363.12 353.13 358.29Q354.46 353.46 356.21 348.77Q357.96 344.08 359.98 340.22Q362.01 336.35 364.12 334.01Q366.24 331.66 368.36 331.66Q369.64 331.66 370.84 332.35Q372.04 333.04 372.82 334.14Q373.6 335.25 373.32 336.63Q373.05 337.82 372.27 338.47Q371.48 339.11 370.38 339.11Q369 339.11 368.31 338.38Q367.62 337.64 367.11 336.86Q366.61 336.08 365.69 336.08Q364.4 336.08 362.84 338.24Q361.27 340.4 359.62 343.94Q357.96 347.48 356.44 351.67Q354.92 355.86 353.73 360Q352.53 364.14 351.98 367.36ZM349.04 368.74Q347.75 368.74 347.38 368.6Q347.01 368.46 347.01 368.18Q347.01 367.82 347.52 365.56Q348.02 363.31 348.39 361.19L351.43 344.17Q352.16 340.49 351.98 338.61Q351.8 336.72 351.15 335.98Q350.51 335.25 349.77 335.25Q348.48 335.25 347.01 336.35Q345.54 337.46 344.16 338.65Q343.98 338.93 343.61 338.56Q343.24 338.19 343.42 337.92Q346.18 334.79 348.58 333.22Q350.97 331.66 353.36 331.66Q355.02 331.66 355.94 332.72Q356.86 333.78 356.95 336.44Q357.04 339.11 356.12 343.99L351.98 367.36Q351.7 368.74 349.04 368.74ZM383.08 368.83Q380.87 368.83 380.13 366.9Q379.4 364.96 380.41 359.81L384.18 340.68Q385.19 335.25 382.62 335.25Q381.6 335.25 379.9 336.35Q378.2 337.46 376.27 339.48Q375.99 339.85 375.58 339.43Q375.16 339.02 375.53 338.74Q378.66 335.16 381.24 333.41Q383.81 331.66 386.2 331.66Q388.5 331.66 389.15 333.64Q389.79 335.62 388.78 340.49L385.1 359.81Q384.55 362.57 385.01 363.86Q385.47 365.15 386.57 365.15Q387.58 365.15 389.24 364.09Q390.9 363.03 392.83 361.1Q393.2 360.73 393.56 361.1Q393.93 361.47 393.56 361.84Q390.53 365.24 388 367.03Q385.47 368.83 383.08 368.83ZM388.87 320.8Q387.03 320.8 385.97 319.79Q384.92 318.78 384.92 316.85Q384.92 315.1 385.97 314.09Q387.03 313.08 388.87 313.08Q390.8 313.08 391.77 314.09Q392.74 315.1 392.74 316.85Q392.74 320.8 388.87 320.8ZM410.03 369.1Q405.16 369.1 402.35 366.53Q399.54 363.95 398.67 359.81Q397.8 355.67 398.72 350.98Q399.27 347.58 401.15 344.03Q403.04 340.49 405.89 337.64Q408.74 334.79 412.24 333.04Q415.74 331.29 419.69 331.29Q423.1 331.29 424.71 332.63Q426.32 333.96 425.95 336.26Q425.49 338.47 423.37 340.49Q421.26 342.52 417.94 344.13Q414.63 345.74 410.54 346.93Q406.44 348.13 402.03 348.59L402.21 347.39Q409.3 346.38 414.13 344.13Q418.96 341.87 419.78 338.19Q420.43 335.71 418.96 334.74Q417.48 333.78 415.64 333.78Q412.52 333.78 410.22 335.71Q407.92 337.64 406.44 340.86Q404.97 344.08 404.33 347.94Q403.32 353.1 404.1 357.14Q404.88 361.19 407.27 363.58Q409.66 365.98 413.53 365.98Q415.74 365.98 418.13 365.33Q420.52 364.69 422.82 362.94Q423.1 362.76 423.42 363.12Q423.74 363.49 423.46 363.77Q419.97 366.62 416.66 367.86Q413.34 369.1 410.03 369.1ZM436.62 369.01Q433.12 369.01 430.55 367.36Q427.97 365.7 428.34 363.31Q428.52 362.02 429.35 361.38Q430.18 360.73 431.1 360.73Q432.3 360.73 432.89 361.7Q433.49 362.66 434.14 363.86Q434.78 365.06 435.98 366.02Q437.17 366.99 439.38 366.99Q441.86 366.99 443.38 365.61Q444.9 364.23 445.27 361.38Q445.64 358.52 444.44 356.45Q443.24 354.38 441.17 352.73Q439.1 351.07 437.13 349.37Q435.15 347.67 434 345.55Q432.85 343.44 433.4 340.58Q433.95 337.73 435.84 335.71Q437.72 333.68 440.35 332.63Q442.97 331.57 445.64 331.57Q448.95 331.57 451.16 332.9Q453.36 334.24 453.09 336.17Q452.81 337.46 451.94 338.05Q451.06 338.65 450.24 338.65Q448.95 338.65 448.21 337.92Q447.48 337.18 446.79 336.17Q446.1 335.16 445.13 334.37Q444.16 333.59 442.32 333.59Q440.58 333.59 439.2 334.51Q437.82 335.43 437.54 337.27Q437.08 340.03 438.32 342.06Q439.56 344.08 441.59 345.83Q443.61 347.58 445.64 349.37Q447.66 351.16 448.81 353.37Q449.96 355.58 449.5 358.52Q449.04 361.19 447.25 363.63Q445.45 366.07 442.69 367.54Q439.93 369.01 436.62 369.01Z"/>
    </g>
    <path id="heart" d="M300 455 C295 450 287 445 287 438 C287 431 296 428 300 435 C304 428 313 431 313 438 C313 445 305 450 300 455Z" fill="#e0b7b3"/>
    </svg>